<svg width="32" height="32" viewBox="0 0 32 32" xmlns="http://www.w3.org/2000/svg"><g fill="#FFF"><path fill="none" d="M0 0h32v32H0z"/><path d="M26.296 4H6.698A1.681 1.681 0 005 5.658V25.34c.01.927.77 1.67 1.698 1.661h19.6A1.682 1.682 0 0028 25.34V5.659A1.68 1.68 0 0026.296 4zM11.821 23.598h-3.41V12.624h3.41v10.974zm-1.705-12.477a1.978 1.978 0 11-.002-3.956 1.978 1.978 0 01.002 3.956zm14.483 12.474h-3.41V18.26c0-1.273-.024-2.91-1.77-2.91-1.774 0-2.048 1.387-2.048 2.818v5.43h-3.41V12.624h3.273v1.503h.046a3.585 3.585 0 013.228-1.769c3.455 0 4.092 2.273 4.092 5.23l-.001 6.007z"/></g></svg>