<svg width="194" height="55" viewBox="0 0 194 55" xmlns="http://www.w3.org/2000/svg"><g fill="none"><path d="M162.531 10.095c0 1.203-10.172 2.86-22.72 2.86-12.546 0-22.719-1.657-22.719-2.86 0-1.204 10.173-2.86 22.72-2.86 12.547 0 22.72 1.656 22.72 2.86" fill="#83898B"/><path d="M140.142 1.434c16.59 0 30.344 1.896 32.884 4.375a.899.899 0 00.093-.371c0-2.874-14.912-5.204-33.308-5.204-18.395 0-33.307 2.33-33.307 5.204 0 .282.15.557.425.827 1.226-2.7 15.623-4.83 33.213-4.83" fill="#257699"/><path d="M5.144 39.959h3.42a1.65 1.65 0 001.199-.506 1.65 1.65 0 00.512-1.217v-3.42c0-.466-.17-.868-.512-1.206a1.653 1.653 0 00-1.199-.505h-3.42c-.474 0-.88.169-1.217.505-.338.338-.506.74-.506 1.206v3.469c.008.457.18.85.518 1.18.337.33.739.494 1.205.494zm-1.723 3.12v2.433c0 .85-.426 1.277-1.277 1.277h-.856C.43 46.789 0 46.363 0 45.512V34.816c0-1.414.502-2.624 1.505-3.633 1.004-1.007 2.218-1.511 3.639-1.511h3.42c1.414 0 2.622.504 3.626 1.511 1.004 1.009 1.507 2.219 1.507 3.633v3.421c0 1.42-.503 2.633-1.507 3.637S9.978 43.38 8.564 43.38h-3.42c-.587 0-1.161-.1-1.723-.301zm25.332-8.263v2.143c0 .852-.426 1.277-1.277 1.277h-5.998c-.852 0-1.277-.425-1.277-1.277v-.867c0-.851.425-1.276 1.277-1.276h3.854c0-.466-.17-.868-.512-1.206a1.654 1.654 0 00-1.199-.505h-3.42c-.474 0-.88.169-1.217.505a1.65 1.65 0 00-.506 1.206v3.42c0 .474.169.88.506 1.217a1.66 1.66 0 001.217.506h7.275c.851 0 1.277.426 1.277 1.276v.856c0 .86-.426 1.289-1.277 1.289H20.2c-1.422 0-2.634-.502-3.638-1.506s-1.506-2.217-1.506-3.638v-3.42c0-1.414.502-2.624 1.506-3.633 1.004-1.007 2.216-1.511 3.638-1.511h3.42c1.414 0 2.622.504 3.626 1.511 1.004 1.009 1.506 2.219 1.506 3.633m4.783 3.42c0 .699.215 1.16.645 1.385.43.225.789.338 1.078.338v-.013h.421c.86 0 1.29.43 1.29 1.29v.855c0 .851-.43 1.277-1.29 1.277h-.265a.875.875 0 01-.156.012c-1.421 0-2.634-.502-3.638-1.506s-1.505-2.217-1.505-3.638V27.54c0-.86.429-1.289 1.288-1.289h.856c.85 0 1.276.43 1.276 1.29v2.13h2.144c.86 0 1.29.43 1.29 1.29v.855c0 .86-.43 1.289-1.29 1.289h-2.144v5.131m11.697-5.131h2.144c.859 0 1.289.43 1.289 1.289v.843c0 .859-.43 1.289-1.29 1.289h-2.143v5.565c0 .86-.426 1.289-1.277 1.289H43.1c-.86 0-1.29-.43-1.29-1.289V31.395c0-1.422.507-2.634 1.518-3.639 1.013-1.003 2.22-1.505 3.627-1.505h2.264c.77.088 1.156.514 1.156 1.276v.868c0 .851-.426 1.277-1.277 1.277-.288 0-.576.002-.86.005a53.11 53.11 0 01-.862.007c-.482 0-.876.056-1.18.169-.635.32-.956.823-.964 1.505v1.747m10.184 0c-.474 0-.88.169-1.216.505-.338.338-.506.74-.506 1.206v3.42c0 .474.168.88.506 1.217.337.337.742.506 1.216.506h3.421a1.65 1.65 0 001.199-.506 1.65 1.65 0 00.512-1.217v-3.42a1.64 1.64 0 00-.512-1.206 1.653 1.653 0 00-1.199-.505h-3.42zm0-3.433h3.421c1.413 0 2.622.504 3.626 1.511 1.004 1.009 1.506 2.219 1.506 3.633v3.42c0 1.421-.502 2.634-1.506 3.638s-2.213 1.506-3.626 1.506h-3.42c-1.422 0-2.635-.502-3.639-1.506-1.003-1.004-1.505-2.217-1.505-3.638v-3.42c0-1.414.502-2.624 1.505-3.633 1.004-1.007 2.217-1.511 3.638-1.511zm15.058 3.433c-.474 0-.88.169-1.217.505a1.65 1.65 0 00-.506 1.206v3.42c0 .474.169.88.506 1.217a1.66 1.66 0 001.217.506h3.42c.458 0 .857-.169 1.199-.506a1.65 1.65 0 00.512-1.217v-3.42c0-.466-.17-.868-.512-1.206a1.655 1.655 0 00-1.199-.505h-3.42zm0-3.433h3.42c1.414 0 2.622.504 3.626 1.511 1.003 1.009 1.506 2.219 1.506 3.633v3.42c0 1.421-.503 2.634-1.506 3.638-1.004 1.004-2.212 1.506-3.626 1.506h-3.42c-1.422 0-2.635-.502-3.638-1.506-1.004-1.004-1.506-2.217-1.506-3.638v-3.42c0-1.414.502-2.624 1.506-3.633 1.003-1.007 2.216-1.511 3.638-1.511zm18.46 3.433h-3.421c-.474 0-.88.169-1.217.505a1.65 1.65 0 00-.505 1.206v3.42c0 .474.168.88.505 1.217.338.337.743.506 1.217.506h3.421a1.65 1.65 0 001.198-.506 1.65 1.65 0 00.512-1.217V34.78a1.69 1.69 0 00-.524-1.18 1.63 1.63 0 00-1.186-.494zm1.71-3.132V27.54c0-.86.43-1.289 1.29-1.289h.855c.85 0 1.277.43 1.277 1.29v10.695c0 1.421-.503 2.634-1.507 3.638-1.003 1.004-2.212 1.506-3.625 1.506h-3.421c-1.422 0-2.634-.502-3.638-1.506-1.003-1.004-1.505-2.217-1.505-3.638v-3.42c0-1.414.502-2.624 1.505-3.633 1.004-1.007 2.216-1.511 3.638-1.511h3.421c.586 0 1.156.1 1.71.301zm10.055 1.422h.855c.851 0 1.277.425 1.277 1.276v9.42c0 .86-.426 1.289-1.277 1.289h-.855c-.86 0-1.29-.43-1.29-1.289v-9.42c0-.851.43-1.276 1.29-1.276zm0-5.144h.855c.851 0 1.277.43 1.277 1.29v.854c0 .851-.426 1.277-1.277 1.277h-.855c-.86 0-1.29-.426-1.29-1.277v-.855c0-.86.43-1.289 1.29-1.289zm10.179 3.421h1.71c1.413 0 2.622.504 3.626 1.511 1.003 1.009 1.506 2.219 1.506 3.633v7.275c0 .86-.427 1.289-1.278 1.289h-.855c-.858 0-1.289-.43-1.289-1.289v-7.275c0-.466-.17-.868-.511-1.206a1.654 1.654 0 00-1.2-.505h-3.42a1.66 1.66 0 00-1.216.505c-.338.338-.506.74-.506 1.206v7.275c0 .86-.426 1.289-1.277 1.289h-.856c-.859 0-1.288-.43-1.288-1.289v-7.275c0-1.414.502-2.624 1.505-3.633 1.004-1.007 2.217-1.511 3.638-1.511h1.71m15.058 13.708h-5.565c-.86 0-1.29-.43-1.29-1.289v-.856c0-.85.43-1.276 1.29-1.276h7.275a1.65 1.65 0 001.198-.506 1.65 1.65 0 00.513-1.217h-8.986c-.86 0-1.29-.425-1.29-1.277v-2.143c0-1.414.502-2.624 1.507-3.633 1.004-1.007 2.216-1.511 3.638-1.511h7.275c.851 0 1.277.43 1.277 1.289v.855c0 .86-.426 1.289-1.277 1.289h-7.275c-.475 0-.88.169-1.218.505a1.65 1.65 0 00-.505 1.206h8.998c.851 0 1.277.425 1.277 1.276v2.144c0 1.421-.502 2.634-1.506 3.638s-2.212 1.506-3.626 1.506h-1.71m11.625-5.144c0 .699.213 1.16.643 1.385.43.225.789.338 1.078.338v-.013h.422c.859 0 1.288.43 1.288 1.29v.855c0 .851-.43 1.277-1.288 1.277h-.265a.882.882 0 01-.157.012c-1.421 0-2.634-.502-3.638-1.506-1.003-1.004-1.506-2.217-1.506-3.638V27.54c0-.86.43-1.289 1.29-1.289h.855c.85 0 1.277.43 1.277 1.29v2.13h2.144c.859 0 1.288.43 1.288 1.29v.855c0 .86-.43 1.289-1.288 1.289h-2.144v5.131m6.106-6.841h.856c.85 0 1.277.425 1.277 1.276v9.42c0 .86-.426 1.289-1.277 1.289h-.856c-.859 0-1.288-.43-1.288-1.289v-9.42c0-.851.43-1.276 1.288-1.276zm0-5.144h.856c.85 0 1.277.43 1.277 1.29v.854c0 .851-.426 1.277-1.277 1.277h-.856c-.859 0-1.288-.426-1.288-1.277v-.855c0-.86.43-1.289 1.288-1.289zm6.747 11.985c0 .699.214 1.16.644 1.385.43.225.789.338 1.078.338v-.013h.421c.86 0 1.29.43 1.29 1.29v.855c0 .851-.43 1.277-1.29 1.277h-.265a.87.87 0 01-.156.012c-1.421 0-2.634-.502-3.638-1.506s-1.506-2.217-1.506-3.638V27.54c0-.86.43-1.289 1.29-1.289h.855c.85 0 1.277.43 1.277 1.29v2.13h2.143c.86 0 1.29.43 1.29 1.29v.855c0 .86-.43 1.289-1.29 1.289h-2.143v5.131m13.382 5.144h-3.42c-1.422 0-2.635-.502-3.639-1.506s-1.505-2.217-1.505-3.638v-7.275c0-.86.43-1.29 1.288-1.29h.856c.85 0 1.277.43 1.277 1.29v7.275c0 .474.168.88.506 1.217a1.66 1.66 0 001.216.506h3.42c.459 0 .858-.169 1.2-.506.34-.337.512-.743.512-1.217v-7.275c0-.86.429-1.29 1.289-1.29h.854c.852 0 1.278.43 1.278 1.29v7.275c0 1.421-.502 2.634-1.506 3.638-1.003 1.004-2.212 1.506-3.626 1.506m9.914-5.144c0 .699.214 1.16.644 1.385.43.225.79.338 1.079.338v-.013h.42c.86 0 1.29.43 1.29 1.29v.855c0 .851-.43 1.277-1.29 1.277h-.264a.875.875 0 01-.156.012c-1.422 0-2.635-.502-3.639-1.506-1.003-1.004-1.505-2.217-1.505-3.638V27.54c0-.86.43-1.289 1.288-1.289h.856c.85 0 1.277.43 1.277 1.29v2.13h2.144c.86 0 1.289.43 1.289 1.29v.855c0 .86-.43 1.289-1.29 1.289h-2.143v5.131m18.514-3.42v2.143c0 .852-.425 1.277-1.277 1.277h-5.998c-.852 0-1.277-.425-1.277-1.277v-.867c0-.851.425-1.276 1.277-1.276h3.855c0-.466-.172-.868-.513-1.206a1.653 1.653 0 00-1.198-.505h-3.42c-.475 0-.88.169-1.218.505a1.65 1.65 0 00-.506 1.206v3.42c0 .474.169.88.506 1.217a1.66 1.66 0 001.217.506h7.275c.852 0 1.277.426 1.277 1.276v.856c0 .86-.425 1.289-1.277 1.289h-7.274c-1.422 0-2.636-.502-3.639-1.506-1.004-1.004-1.506-2.217-1.506-3.638v-3.42c0-1.414.502-2.624 1.506-3.633 1.003-1.007 2.217-1.511 3.638-1.511h3.42c1.414 0 2.622.504 3.627 1.511 1.003 1.009 1.505 2.219 1.505 3.633M34.91 49.508c.164.044.373.061.624.061.91 0 1.466-.442 1.466-1.25 0-.772-.546-1.145-1.379-1.145-.33 0-.581.026-.712.061v2.273zm-.756-2.82a8.84 8.84 0 011.45-.113c.745 0 1.293.174 1.64.486.321.278.512.703.512 1.224 0 .53-.156.946-.451 1.25-.4.425-1.05.642-1.789.642-.225 0-.433-.009-.607-.052v2.343h-.755v-5.78zm4.452 2.89c0-.495-.008-.92-.034-1.31h.668l.025.824h.036c.19-.564.65-.92 1.162-.92.087 0 .148.009.217.026v.72a1.176 1.176 0 00-.26-.026c-.538 0-.92.408-1.024.981a2.086 2.086 0 00-.035.356v2.239h-.755v-2.89m3.228.798c0 .92.53 1.615 1.276 1.615.729 0 1.276-.686 1.276-1.632 0-.712-.356-1.614-1.259-1.614-.902 0-1.293.833-1.293 1.631zm3.333-.043c0 1.553-1.076 2.23-2.092 2.23-1.136 0-2.013-.833-2.013-2.16 0-1.407.92-2.231 2.083-2.231 1.206 0 2.022.876 2.022 2.16zm.963-.929c0-.434-.008-.79-.034-1.137h.668l.034.677h.026c.235-.399.625-.772 1.32-.772.572 0 1.006.347 1.189.842h.017a1.71 1.71 0 01.469-.546c.251-.192.529-.296.928-.296.556 0 1.38.364 1.38 1.822v2.474h-.746V50.09c0-.807-.295-1.293-.912-1.293-.433 0-.772.321-.902.694a1.25 1.25 0 00-.06.382v2.595h-.747V49.95c0-.668-.295-1.154-.877-1.154-.477 0-.824.382-.946.764-.043.112-.06.243-.06.373v2.534h-.747v-3.064m7.707.973c0 .92.53 1.615 1.276 1.615.729 0 1.275-.686 1.275-1.632 0-.712-.356-1.614-1.258-1.614-.903 0-1.293.833-1.293 1.631zm3.332-.043c0 1.553-1.076 2.23-2.091 2.23-1.137 0-2.014-.833-2.014-2.16 0-1.407.92-2.231 2.083-2.231 1.207 0 2.022.876 2.022 2.16zm1.884-3.272v1.206h1.093v.582h-1.093v2.265c0 .52.147.816.572.816.2 0 .348-.026.443-.052l.035.572c-.148.061-.382.105-.677.105-.356 0-.642-.113-.825-.321-.217-.226-.295-.6-.295-1.094v-2.291h-.65v-.582h.65v-1.006l.747-.2m1.952 5.407h.764v-4.2h-.764zm.851-5.381c.008.26-.182.469-.486.469a.454.454 0 01-.46-.469c0-.269.2-.477.477-.477.287 0 .469.208.469.477zm1.179 2.317c0-.434-.008-.79-.034-1.137h.677l.043.695h.018c.208-.399.694-.79 1.389-.79.58 0 1.484.347 1.484 1.788v2.508h-.765v-2.421c0-.677-.251-1.242-.971-1.242-.504 0-.894.356-1.024.782a1.083 1.083 0 00-.052.355v2.526h-.765v-3.064m7.646.521c0-.13-.008-.243-.043-.347-.139-.443-.512-.807-1.068-.807-.729 0-1.25.616-1.25 1.588 0 .824.417 1.51 1.242 1.51.468 0 .894-.295 1.059-.781.043-.13.06-.278.06-.408v-.755zm.79-1.658c-.017.304-.035.643-.035 1.155v2.438c0 .964-.19 1.554-.598 1.918-.408.382-.999.504-1.528.504-.503 0-1.058-.122-1.397-.347l.19-.582c.278.174.712.33 1.233.33.781 0 1.354-.408 1.354-1.467v-.468h-.017c-.235.39-.686.702-1.337.702-1.041 0-1.788-.885-1.788-2.048 0-1.423.929-2.23 1.892-2.23.73 0 1.128.382 1.31.73h.018l.035-.635h.668zm3.072 4.201h.764v-6.161h-.764zm2.517-2.092c0 .92.53 1.615 1.276 1.615.728 0 1.276-.686 1.276-1.632 0-.712-.356-1.614-1.26-1.614-.901 0-1.292.833-1.292 1.631zm3.332-.043c0 1.553-1.075 2.23-2.09 2.23-1.138 0-2.014-.833-2.014-2.16 0-1.407.92-2.231 2.083-2.231 1.205 0 2.021.876 2.021 2.16zm.963-.929c0-.434-.008-.79-.034-1.137h.677l.044.695h.016c.21-.399.695-.79 1.39-.79.581 0 1.483.347 1.483 1.788v2.508h-.763v-2.421c0-.677-.252-1.242-.973-1.242-.503 0-.894.356-1.023.782a1.098 1.098 0 00-.052.355v2.526h-.765v-3.064m7.646.521c0-.13-.008-.243-.043-.347-.138-.443-.512-.807-1.068-.807-.728 0-1.249.616-1.249 1.588 0 .824.417 1.51 1.241 1.51a1.12 1.12 0 001.06-.781c.042-.13.06-.278.06-.408v-.755zm.79-1.658c-.017.304-.034.643-.034 1.155v2.438c0 .964-.191 1.554-.599 1.918-.408.382-.998.504-1.527.504-.504 0-1.06-.122-1.398-.347l.191-.582c.278.174.712.33 1.233.33.78 0 1.353-.408 1.353-1.467v-.468h-.017c-.235.39-.685.702-1.336.702-1.042 0-1.788-.885-1.788-2.048 0-1.423.928-2.23 1.892-2.23.729 0 1.128.382 1.31.73h.018l.034-.635h.669zm5.286 2.057c-.834-.017-1.78.13-1.78.946 0 .495.33.73.721.73.547 0 .894-.348 1.015-.704a.815.815 0 00.044-.243v-.729zm.113 2.144l-.061-.53h-.026c-.235.33-.686.625-1.285.625-.85 0-1.284-.599-1.284-1.206 0-1.015.902-1.57 2.525-1.562v-.087c0-.347-.096-.972-.954-.972-.391 0-.799.122-1.094.312l-.174-.503c.348-.226.85-.373 1.38-.373 1.285 0 1.597.876 1.597 1.718v1.571c0 .365.017.72.07 1.007h-.694zm1.856-3.064c0-.434-.008-.79-.034-1.137h.677l.043.695h.017c.209-.399.695-.79 1.389-.79.581 0 1.484.347 1.484 1.788v2.508h-.764v-2.421c0-.677-.252-1.242-.972-1.242-.503 0-.894.356-1.024.782a1.114 1.114 0 00-.052.355v2.526h-.764v-3.064m7.681.573a1.35 1.35 0 00-.035-.321 1.123 1.123 0 00-1.101-.885c-.79 0-1.259.694-1.259 1.623 0 .85.417 1.553 1.24 1.553.513 0 .982-.338 1.12-.911.026-.104.035-.208.035-.33v-.729zm.764-3.67v5.076c0 .373.008.798.034 1.085h-.685l-.035-.73h-.017c-.234.47-.747.825-1.432.825-1.016 0-1.796-.859-1.796-2.135-.01-1.397.858-2.256 1.883-2.256.642 0 1.076.304 1.266.642h.018v-2.507h.764zm3.106 0h.764v2.62h.018a1.42 1.42 0 01.546-.538c.226-.13.495-.217.781-.217.565 0 1.467.347 1.467 1.796v2.5h-.764v-2.413c0-.677-.251-1.25-.972-1.25-.494 0-.885.348-1.024.764a.925.925 0 00-.052.365v2.534h-.764v-6.161m7.482 3.653c.008-.486-.2-1.241-1.06-1.241-.771 0-1.11.711-1.171 1.24h2.231zm-2.24.546c.018 1.033.677 1.458 1.442 1.458.546 0 .876-.095 1.162-.216l.13.546c-.269.122-.729.26-1.397.26-1.293 0-2.065-.85-2.065-2.117s.746-2.265 1.97-2.265c1.37 0 1.735 1.206 1.735 1.979 0 .156-.017.277-.026.355h-2.95zm6.136-.182c-.833-.017-1.779.13-1.779.946 0 .495.33.73.72.73.547 0 .894-.348 1.016-.704a.797.797 0 00.043-.243v-.729zm.113 2.144l-.06-.53H120c-.234.33-.685.625-1.284.625-.85 0-1.285-.599-1.285-1.206 0-1.015.903-1.57 2.526-1.562v-.087c0-.347-.096-.972-.955-.972-.391 0-.798.122-1.093.312l-.174-.503c.347-.226.85-.373 1.38-.373 1.284 0 1.596.876 1.596 1.718v1.571c0 .365.018.72.07 1.007h-.694zm1.857 0h.764v-6.161h-.764zm2.968-5.407v1.206h1.094v.582h-1.094v2.265c0 .52.147.816.572.816.2 0 .348-.026.443-.052l.035.572c-.147.061-.382.105-.677.105-.356 0-.642-.113-.824-.321-.217-.226-.296-.6-.296-1.094v-2.291h-.65v-.582h.65v-1.006l.747-.2m1.952-.754h.764v2.62h.018a1.42 1.42 0 01.546-.538c.226-.13.495-.217.782-.217.563 0 1.466.347 1.466 1.796v2.5h-.764v-2.413c0-.677-.251-1.25-.972-1.25-.494 0-.884.348-1.024.764a.925.925 0 00-.052.365v2.534h-.764v-6.161m4.982 1.96l.92 2.482c.095.278.2.608.269.86h.017c.078-.252.166-.573.27-.877l.832-2.465h.807l-1.145 2.995c-.547 1.44-.92 2.178-1.44 2.63-.374.329-.747.46-.938.494l-.191-.642c.191-.061.443-.183.669-.374.208-.164.468-.46.642-.85a.535.535 0 00.06-.182.678.678 0 00-.051-.2l-1.554-3.87h.833m5.649 4.2h.764v-6.161h-.764zm2.048 0h.764v-4.2h-.764zm.851-5.381c.009.26-.183.469-.486.469a.454.454 0 01-.46-.469c0-.269.2-.477.477-.477.286 0 .469.208.469.477zm1.475 1.18l.825 2.361c.138.382.251.729.338 1.076h.026c.095-.347.217-.694.356-1.076l.816-2.36h.798l-1.649 4.2h-.729l-1.596-4.2h.815m6.466 1.692c.008-.486-.2-1.241-1.06-1.241-.772 0-1.11.711-1.17 1.24h2.23zm-2.24.546c.018 1.033.677 1.458 1.441 1.458.547 0 .877-.095 1.163-.216l.13.546c-.269.122-.729.26-1.397.26-1.293 0-2.065-.85-2.065-2.117s.746-2.265 1.97-2.265c1.37 0 1.735 1.206 1.735 1.979 0 .156-.017.277-.026.355h-2.95zm3.819 1.181c.226.147.625.304 1.007.304.555 0 .815-.278.815-.625 0-.365-.217-.564-.78-.773-.756-.269-1.111-.685-1.111-1.189 0-.677.546-1.232 1.449-1.232.425 0 .798.121 1.033.26l-.191.556a1.635 1.635 0 00-.86-.243c-.45 0-.702.26-.702.573 0 .347.251.503.798.711.729.278 1.102.642 1.102 1.267 0 .738-.573 1.259-1.57 1.259-.46 0-.886-.113-1.18-.287l.19-.581m5.085 0c.226.147.625.304 1.007.304.555 0 .815-.278.815-.625 0-.365-.217-.564-.78-.773-.755-.269-1.111-.685-1.111-1.189 0-.677.546-1.232 1.45-1.232.424 0 .797.121 1.032.26l-.191.556a1.635 1.635 0 00-.86-.243c-.45 0-.702.26-.702.573 0 .347.251.503.798.711.729.278 1.102.642 1.102 1.267 0 .738-.572 1.259-1.57 1.259-.46 0-.886-.113-1.18-.287l.19-.581m3.445.781h.764v-4.2h-.764zm.85-5.381c.01.26-.182.469-.486.469a.454.454 0 01-.46-.469c0-.269.2-.477.478-.477.286 0 .468.208.468.477zm1.085 2.317c0-.434-.008-.79-.034-1.137h.677l.043.695h.017c.209-.399.695-.79 1.389-.79.581 0 1.484.347 1.484 1.788v2.508h-.764v-2.421c0-.677-.251-1.242-.972-1.242-.503 0-.894.356-1.024.782a1.098 1.098 0 00-.052.355v2.526h-.764v-3.064m7.716 2.908c-.2.104-.643.243-1.207.243-1.267 0-2.09-.86-2.09-2.144 0-1.293.884-2.23 2.255-2.23.451 0 .85.112 1.059.217l-.174.59c-.182-.104-.468-.2-.885-.2-.963 0-1.483.712-1.483 1.588 0 .972.625 1.571 1.457 1.571.434 0 .72-.113.937-.208l.13.573m3.463-2.352c.009-.486-.2-1.241-1.058-1.241-.773 0-1.111.711-1.172 1.24h2.23zm-2.239.546c.018 1.033.677 1.458 1.44 1.458.548 0 .877-.095 1.164-.216l.13.546c-.269.122-.729.26-1.397.26-1.293 0-2.066-.85-2.066-2.117s.747-2.265 1.97-2.265c1.372 0 1.736 1.206 1.736 1.979 0 .156-.018.277-.026.355h-2.95zm6.986-2.968h-.017l-.981.53-.148-.582 1.233-.659h.65v5.64h-.737v-4.929m3.419 1.147c0 .702.426 1.197 1.085 1.197.512 0 .911-.252 1.11-.59a.5.5 0 00.07-.278c0-.964-.356-1.701-1.154-1.701-.651 0-1.111.573-1.111 1.372zm-.277 3.245c.164.017.355 0 .615-.026.443-.061.86-.243 1.18-.547.374-.338.643-.833.747-1.501h-.026c-.312.381-.764.607-1.327.607-1.016 0-1.667-.764-1.667-1.727 0-1.067.773-2.004 1.927-2.004s1.865.937 1.865 2.377c0 1.241-.416 2.11-.971 2.647-.434.425-1.033.686-1.64.755-.279.044-.522.052-.703.044v-.625zm7.28-4.461h-2.153l-.216 1.45c.13-.017.252-.035.46-.035.434 0 .867.095 1.215.303.442.252.807.738.807 1.45 0 1.102-.876 1.926-2.1 1.926-.616 0-1.137-.173-1.406-.347l.191-.581c.234.139.694.312 1.206.312.72 0 1.336-.469 1.336-1.224-.008-.729-.494-1.25-1.622-1.25-.321 0-.573.035-.781.061l.364-2.707h2.7v.642m1.857.711c0 .565.425.868 1.076 1.042.486-.165.859-.512.859-1.024 0-.451-.27-.92-.955-.92-.633 0-.98.417-.98.903zm2.1 2.821c0-.685-.478-1.015-1.241-1.232-.66.19-1.016.625-1.016 1.163-.026.573.408 1.076 1.129 1.076.685 0 1.128-.425 1.128-1.007zm-3.038.035c0-.712.426-1.215 1.12-1.51l-.009-.026c-.625-.295-.894-.781-.894-1.267 0-.894.755-1.501 1.745-1.501 1.093 0 1.64.685 1.64 1.388 0 .477-.234.99-.929 1.319v.026c.703.278 1.137.772 1.137 1.458 0 .98-.842 1.64-1.918 1.64-1.18 0-1.892-.703-1.892-1.527zm4.487.981c0-.322.217-.547.52-.547.305 0 .512.225.512.547 0 .312-.2.546-.52.546-.304 0-.512-.234-.512-.546" fill="#50504F"/><path d="M173.899 5.249c.046.19.074.381.074.575 0 2.475-3.59 4.626-10.378 6.221-6.364 1.495-14.81 2.32-23.784 2.32-8.973 0-17.419-.825-23.783-2.32-6.789-1.595-10.377-3.746-10.377-6.22 0-.194.027-.385.073-.574l-3.848 13.635c.173 2.88 4.224 5.508 11.453 7.418 5.326 1.408 11.97 2.332 19.18 2.709V27.54c0-1.745 1.173-2.917 2.917-2.917h.856c1.736 0 2.904 1.172 2.904 2.917v.504h.517c.382 0 .728.063 1.046.164v-.668c0-1.745 1.173-2.917 2.916-2.917h.856c.751 0 1.385.23 1.875.619.492-.39 1.129-.62 1.883-.62h.856c1.736 0 2.904 1.173 2.904 2.918v.504h.516c.586 0 1.094.135 1.524.367 4.968-.586 10.206-1.576 12.215-2.107 7.229-1.91 11.28-4.538 11.453-7.418l-3.848-13.637" fill="#257699"/></g></svg>