<svg xmlns="http://www.w3.org/2000/svg" width="188.404" height="95.671" viewBox="0 0 188.404 95.671"><g transform="translate(-49.213 -61.141)"><path d="M199.833 85.626c0 2.989-25.26 7.1-56.418 7.1S87 88.615 87 85.626s25.26-7.1 56.418-7.1 56.418 4.111 56.418 7.1m-55.598-21.505c41.2 0 75.348 4.706 81.656 10.865a2.248 2.248 0 00.232-.923c0-7.137-37.03-12.922-82.711-12.922S60.7 66.926 60.7 74.063a2.946 2.946 0 001.057 2.052c3.046-6.7 38.794-11.994 82.477-11.994M58.768 73.6l.052-.183c-.02.06-.037.121-.052.183zm.432-1.527l-.378 1.343a7.453 7.453 0 01.5-1.343z" fill="#fff"/><path d="M228.061 73.593a6.014 6.014 0 01.183 1.429c0 6.145-8.912 11.486-25.771 15.448-15.8 3.713-36.777 5.759-59.058 5.759s-43.256-2.046-59.06-5.759c-16.859-3.962-25.769-9.3-25.769-15.448a6.014 6.014 0 01.182-1.423l-9.555 33.857c.428 7.152 10.491 13.677 28.439 18.422 13.721 3.627 30.952 5.977 49.637 6.838 28.086.559 41.07-.082 60.462-2.6a132.336 132.336 0 0021.426-4.24c17.95-4.745 28.01-11.27 28.44-18.422zm0 0c-.014-.055-.032-.11-.047-.166zm-.554-1.52a7.581 7.581 0 01.507 1.354l-.382-1.354z" fill="#fff"/><path d="M126.367 123.565v3.653a1.7 1.7 0 01-1.917 1.917h-1.284a1.7 1.7 0 01-1.935-1.917V111.16a7.733 7.733 0 017.722-7.722h5.135a7.735 7.735 0 017.7 7.722v5.14a7.72 7.72 0 01-7.7 7.722h-5.135a7.614 7.614 0 01-2.586-.457zm2.586-4.683h5.135a2.611 2.611 0 002.569-2.586v-5.136a2.46 2.46 0 00-.769-1.809 2.485 2.485 0 00-1.8-.759h-5.135a2.592 2.592 0 00-2.586 2.568v5.208a2.452 2.452 0 00.777 1.772 2.5 2.5 0 001.809.742zm21.11-10.29h3.218a1.71 1.71 0 011.935 1.935v1.266a1.71 1.71 0 01-1.935 1.935h-3.218v8.355a1.7 1.7 0 01-1.917 1.935h-1.285a1.71 1.71 0 01-1.934-1.935v-16.059a7.749 7.749 0 017.722-7.722h3.4a1.739 1.739 0 011.736 1.917v1.3a1.694 1.694 0 01-1.917 1.917c-.433 0-.865 0-1.292.009s-.859.009-1.294.009a5.2 5.2 0 00-1.772.254 2.417 2.417 0 00-1.446 2.26v2.622zM162.4 98.3h1.285a1.7 1.7 0 011.916 1.936v1.283a1.694 1.694 0 01-1.916 1.917H162.4a1.7 1.7 0 01-1.935-1.917v-1.283A1.711 1.711 0 01162.4 98.3zm0 7.722h1.285a1.694 1.694 0 011.916 1.917v14.142a1.7 1.7 0 01-1.916 1.935H162.4a1.71 1.71 0 01-1.935-1.935v-14.14a1.7 1.7 0 011.935-1.917z" fill="#4679a2"/><rect width="71.332" height="19.333" rx="3.515" transform="translate(107.749 137.479)" fill="#fff"/><path d="M115.067 149.486a4.994 4.994 0 002.392.631c1.16 0 1.806-.543 1.806-1.35 0-.748-.5-1.189-1.761-1.644-1.629-.587-2.672-1.453-2.672-2.877 0-1.615 1.351-2.848 3.494-2.848a5.231 5.231 0 012.378.5l-.441 1.454a4.172 4.172 0 00-1.967-.47c-1.145 0-1.644.616-1.644 1.188 0 .764.573 1.117 1.894 1.63 1.717.646 2.554 1.512 2.554 2.936 0 1.585-1.2 2.965-3.758 2.965a5.86 5.86 0 01-2.671-.617zm8.628-7.177a1.013 1.013 0 11-1.012-.985.956.956 0 011.012.985zm-1.923 9.144V144.3h1.821v7.148zm2.876-5.02c0-.822-.014-1.512-.058-2.128h1.585l.088 1.071h.044a2.578 2.578 0 012.276-1.233c1.247 0 2.539.807 2.539 3.068v4.242h-1.806v-4.037c0-1.027-.381-1.805-1.365-1.805a1.516 1.516 0 00-1.409 1.057 1.831 1.831 0 00-.073.587v4.2h-1.821zm12.768 4.8a5.224 5.224 0 01-2.025.367 3.433 3.433 0 01-3.685-3.64 3.7 3.7 0 013.978-3.817 4.52 4.52 0 011.747.337l-.323 1.351a3.183 3.183 0 00-1.365-.279 2.316 2.316 0 000 4.624 3.532 3.532 0 001.424-.279z" fill="#4679a2"/><path d="M139.014 148.385a1.942 1.942 0 002.2 1.849 5.379 5.379 0 001.981-.322l.265 1.247a6.725 6.725 0 01-2.5.441 3.382 3.382 0 01-3.684-3.611c0-1.982 1.2-3.846 3.493-3.846 2.32 0 3.083 1.908 3.083 3.479a4.36 4.36 0 01-.059.763zm3.141-1.262a1.537 1.537 0 00-1.482-1.747 1.766 1.766 0 00-1.659 1.747zm6.631-3.582h-.029l-1.747.881-.308-1.365 2.319-1.145h1.512v9.541h-1.747zm4.004 6.62a4.806 4.806 0 001-.029 3.605 3.605 0 001.938-.734 3.528 3.528 0 001.218-2.114l-.029-.014a2.64 2.64 0 01-2.085.851 2.819 2.819 0 01-2.892-2.965 3.382 3.382 0 013.45-3.406c2.216 0 3.406 1.747 3.406 4.066a5.9 5.9 0 01-1.659 4.433 5.256 5.256 0 01-3.259 1.307 7.081 7.081 0 01-1.086.029zm.939-5.108a1.585 1.585 0 001.571 1.747 1.742 1.742 0 001.542-.793 1.09 1.09 0 00.1-.514c.015-1.291-.469-2.407-1.644-2.407-.908 0-1.569.808-1.569 1.967zm11.371-1.644h-3.67l-.279 1.908a4.86 4.86 0 01.69-.044 4.248 4.248 0 012.319.617 2.735 2.735 0 011.248 2.422c0 1.82-1.512 3.3-3.86 3.3a5.493 5.493 0 01-2.526-.557l.368-1.366a4.817 4.817 0 002.1.5 1.862 1.862 0 002.07-1.746c0-1.087-.808-1.8-2.716-1.8a8.278 8.278 0 00-1.307.088l.632-4.815h4.931zm.792 5.591a2.636 2.636 0 011.791-2.481v-.044a2.328 2.328 0 01-1.454-2.114c0-1.555 1.38-2.613 3.186-2.613 2.055 0 2.994 1.233 2.994 2.407a2.385 2.385 0 01-1.468 2.158v.044a2.567 2.567 0 011.821 2.408c0 1.7-1.439 2.847-3.48 2.847-2.23.002-3.39-1.274-3.39-2.612zm5.035-.088c0-.969-.72-1.5-1.777-1.791a1.744 1.744 0 00-1.409 1.673 1.5 1.5 0 001.6 1.542 1.445 1.445 0 001.586-1.422zm-2.981-4.624c0 .777.647 1.247 1.557 1.5a1.548 1.548 0 001.188-1.438 1.278 1.278 0 00-1.365-1.35 1.265 1.265 0 00-1.38 1.29z" fill="#4679a2"/><path d="M182.842 139.452h1.732v4.718h1.138v-4.718h1.732v-.974h-4.6zm11.358-.974h-1.1l-1.639 4.037-1.648-4.037h-1.375v5.692h1.136v-3.67l1.577 3.674h.619l1.57-3.668v3.668h1.138v-5.692z" fill="#fff"/></g></svg>