<svg width="32" height="32" viewBox="0 0 32 32" xmlns="http://www.w3.org/2000/svg"><g fill="none" fill-rule="evenodd"><path d="M0 0h32v32H0z"/><path d="M28.452 9.477l-2.722.599 1.743-2.397L24.3 8.812c-.893-1.25-2.214-1.96-3.853-1.786-5.585.596-3.912 6.575-3.912 6.575s-6.7-1.748-9.693-4.971a6.952 6.952 0 01-.524-.632s-.529 4.823 1.388 6.434l-2.233-.327s.725 3.98 3.715 4.593c0 0-1.38.46-1.917.384 0 0 .996 2.99 4.14 3.22 0 0-1.782 1.624-6.411 1.846 0 0 9.97 5.027 16.482-1.483 3.19-3.19 4.349-7.153 4.044-10.295l2.926-2.893z" fill="#FFF"/></g></svg>