<svg width="32" height="32" viewBox="0 0 32 32" xmlns="http://www.w3.org/2000/svg"><g fill="none" fill-rule="evenodd"><path d="M0 0h32v32H0z"/><path d="M27.52 10.53c.48 1.806.48 5.572.48 5.572s0 3.767-.48 5.572a2.847 2.847 0 01-2.034 2.014c-1.794.484-8.986.484-8.986.484s-7.192 0-8.986-.484a2.847 2.847 0 01-2.033-2.014C5 19.87 5 16.102 5 16.102s0-3.766.48-5.572a2.89 2.89 0 012.034-2.046C9.308 8 16.5 8 16.5 8s7.192 0 8.986.484a2.89 2.89 0 012.033 2.046zm-13.372 8.992l6.011-3.42-6.011-3.42v6.84z" fill="#FFF" fill-rule="nonzero"/></g></svg>